<?xml version="1.0" encoding="utf-8"?>
<!-- Generator: Adobe Illustrator 19.1.0, SVG Export Plug-In . SVG Version: 6.00 Build 0)  -->
<svg version="1.1" id="Layer_1" xmlns="http://www.w3.org/2000/svg" xmlns:xlink="http://www.w3.org/1999/xlink" x="0px" y="0px"
	 width="360px" height="186px" viewBox="0 0 360 186" style="enable-background:new 0 0 360 186;" xml:space="preserve">
<style type="text/css">
	.st0{fill:none;stroke:#11ACCD;stroke-width:3;stroke-miterlimit:10;}
	.st1{opacity:0.5;fill:#CCFAFF;}
	.st2{fill:none;stroke:#000000;stroke-linecap:round;stroke-linejoin:round;stroke-miterlimit:10;}
	.st3{fill:none;stroke:#000000;stroke-width:1.5;stroke-linecap:round;stroke-linejoin:round;stroke-miterlimit:10;}
	.st4{fill:none;stroke:#000000;stroke-linecap:round;stroke-miterlimit:10;}
	.st5{fill:none;stroke:#000000;stroke-width:1.5;stroke-linecap:round;stroke-miterlimit:10;}
	.st6{fill:none;stroke:#000000;stroke-width:2;stroke-linecap:round;stroke-linejoin:round;stroke-miterlimit:10;}
	.st7{fill:none;stroke:#000000;stroke-width:1.5;stroke-miterlimit:10;}
	.st8{fill:none;stroke:#000000;stroke-miterlimit:10;}
	.st9{fill:none;stroke:#000000;stroke-width:2;stroke-miterlimit:10;}
	.st10{fill:none;stroke:#000000;stroke-width:2;stroke-linecap:round;stroke-miterlimit:10;}
	.st11{fill:none;stroke:#000000;stroke-linecap:round;stroke-linejoin:round;}
	.st12{fill:none;}
	.st13{stroke:#000000;stroke-linecap:round;stroke-linejoin:round;stroke-miterlimit:10;}
	.st14{fill:none;stroke:#000000;stroke-width:1.5;stroke-linejoin:round;stroke-miterlimit:10;}
	.st15{fill:none;stroke:#000000;stroke-linejoin:round;stroke-miterlimit:10;}
	.st16{clip-path:url(#SVGID_2_);fill:none;stroke:#000000;stroke-linejoin:round;stroke-miterlimit:10;}
	.st17{clip-path:url(#SVGID_2_);fill:none;stroke:#ADADEB;stroke-linejoin:round;stroke-miterlimit:10;}
	.st18{clip-path:url(#SVGID_2_);}
	.st19{stroke:#000000;stroke-linejoin:round;stroke-miterlimit:10;}
	.st20{stroke:#000000;stroke-width:3;stroke-linejoin:round;stroke-miterlimit:10;}
	.st21{fill:none;stroke:#000000;stroke-linejoin:round;}
	.st22{fill:#FFFFFF;stroke:#000000;stroke-miterlimit:10;}
	.st23{fill:none;stroke:#11ACCD;stroke-width:3;stroke-linecap:round;stroke-miterlimit:10;}
	.st24{fill:#11ACCD;}
	.st25{fill:#0C7F99;}
	.st26{fill:#FF9C39;}
	.st27{fill:none;stroke:#000000;stroke-width:2;stroke-linecap:round;stroke-miterlimit:10;stroke-dasharray:6.1241,6.1241;}
	.st28{fill:none;stroke:#11ACCD;stroke-width:4;stroke-linecap:round;stroke-miterlimit:10;}
	.st29{font-family:'KaTeX_Main-Regular';}
	.st30{font-size:18px;}
	.st31{fill:none;stroke:#11ACCD;stroke-width:3;stroke-linecap:round;stroke-linejoin:round;}
	.st32{fill:none;stroke:#11ACCD;stroke-width:2;stroke-linecap:round;stroke-linejoin:round;}
	.st33{fill:none;stroke:#11ACCD;stroke-width:2;stroke-linecap:round;stroke-linejoin:round;stroke-dasharray:5.9723,5.9723;}
	.st34{fill:#E07D10;}
	.st35{stroke:#000000;stroke-miterlimit:10;}
</style>
<line class="st0" x1="66" y1="174" x2="66" y2="174"/>
<text transform="matrix(1 0 0 1 6.0004 114.0002)" class="st29 st30">V1</text>
<text transform="matrix(1 0 0 1 114.0002 23.9998)" class="st29 st30">R1</text>
<text transform="matrix(1 0 0 1 149.9997 162.0002)" class="st29 st30">R3</text>
<text transform="matrix(1 0 0 1 221.9997 24.0001)" class="st29 st30">R2</text>
<text transform="matrix(1 0 0 1 329.9996 114.0002)" class="st29 st30">V2</text>
<g>
	<circle class="st6" cx="300" cy="108" r="18"/>
	<polyline class="st2" points="287,48 300,48 300,66 300,90 	"/>
	<polyline class="st2" points="300,126 300,150 300,168 	"/>
	<line class="st3" x1="300" y1="94.5" x2="300" y2="106.5"/>
	<line class="st3" x1="294" y1="100.5" x2="306" y2="100.5"/>
	<line class="st3" x1="294" y1="118.5" x2="306" y2="118.5"/>
</g>
<g>
	<circle class="st6" cx="60.2" cy="108" r="18"/>
	<polyline class="st2" points="60.2,90 60.2,66 60.2,48 72.8,48 	"/>
	<polyline class="st2" points="60.2,126 60,168 300,168 	"/>
	<line class="st3" x1="60.2" y1="94.5" x2="60.2" y2="106.5"/>
	<line class="st3" x1="54.2" y1="100.5" x2="66.2" y2="100.5"/>
	<line class="st3" x1="54.2" y1="118.5" x2="66.2" y2="118.5"/>
</g>
<g>
	<line class="st2" x1="150" y1="48" x2="179.8" y2="48"/>
	<polyline class="st6" points="103.2,48 107.1,39 114.9,57 122.7,39 130.5,57 138.3,39 146.1,57 150,48 	"/>
	<line class="st2" x1="72.8" y1="48" x2="103.2" y2="48"/>
	<polygon class="st12" points="179.8,60 180,36 72.8,36 72.8,60 	"/>
</g>
<g>
	<line class="st2" x1="257.2" y1="48" x2="287" y2="48"/>
	<polyline class="st6" points="210.4,48 214.3,39 222.1,57 229.9,39 237.7,57 245.5,39 253.3,57 257.2,48 	"/>
	<line class="st2" x1="180" y1="48" x2="210.4" y2="48"/>
	<polygon class="st12" points="287,60 287.2,36 180,36 180,60 	"/>
</g>
<g>
	<line class="st2" x1="180" y1="84.6" x2="180" y2="66"/>
	<polyline class="st6" points="180,131.4 171,127.5 189,119.7 171,111.9 189,104.1 171,96.3 189,88.5 180,84.6 	"/>
	<line class="st2" x1="180" y1="168" x2="180" y2="131.4"/>
	<rect x="168" y="66" class="st12" width="24" height="102"/>
</g>
<g>
	<circle class="st13" cx="180" cy="48" r="1.5"/>
	<rect x="174" y="42" class="st12" width="12" height="12"/>
</g>
<g>
	<circle class="st13" cx="180" cy="168" r="1.5"/>
	<rect x="174" y="162" class="st12" width="12" height="12"/>
</g>
<line class="st2" x1="180" y1="66" x2="180" y2="48"/>
<circle class="st1" cx="126.5" cy="109" r="24"/>
<text transform="matrix(1 0 0 1 123.251 115)" class="st25 st29 st30">I</text>
<g>
	<g>
		<path class="st31" d="M102.2,142.6c6.8,4.7,15,7.4,23.8,7.4c23.2,0,42-18.8,42-42s-18.8-42-42-42s-42,18.8-42,42
			c0,11.8,4.8,22.4,12.6,30"/>
		<g>
			<path class="st24" d="M96.6,138c1.9,3.1,3.8,7.5,4.4,10.9l2-5.7l5.2-3.1C104.7,140.2,100,139.2,96.6,138z"/>
		</g>
	</g>
</g>
<circle class="st1" cx="234.5" cy="109" r="24"/>
<text transform="matrix(1 0 0 1 228.002 115)" class="st25 st29 st30">II</text>
<g>
	<g>
		<path class="st31" d="M210.2,142.6c6.8,4.7,15,7.4,23.8,7.4c23.2,0,42-18.8,42-42s-18.8-42-42-42s-42,18.8-42,42
			c0,11.8,4.8,22.4,12.6,30"/>
		<g>
			<path class="st24" d="M204.6,138c1.9,3.1,3.8,7.5,4.4,10.9l2-5.7l5.2-3.1C212.7,140.2,208,139.2,204.6,138z"/>
		</g>
	</g>
</g>
<g>
	<g>
		<line class="st32" x1="55.2" y1="180" x2="58.2" y2="180"/>
		<path class="st33" d="M64.2,180H312c6.6,0,12-5.4,12-12V42c0-6.6-5.4-12-12-12H48c-6.6,0-12,5.4-12,12v126c0,4.5,2.5,8.5,6.3,10.5
			"/>
		<path class="st32" d="M45,179.6c1,0.2,1.9,0.4,3,0.4"/>
		<g>
			<path class="st24" d="M48,180c3.4,1.3,7.6,3.4,10.3,5.7l-2.1-5.7l2.1-5.7C55.6,176.6,51.4,178.7,48,180z"/>
		</g>
	</g>
</g>
<circle class="st1" cx="330" cy="30" r="24"/>
<text transform="matrix(1 0 0 1 320.2529 36)" class="st25 st29 st30">III</text>
</svg>
