<?xml version="1.0" encoding="utf-8"?>
<!-- Generator: Adobe Illustrator 19.1.0, SVG Export Plug-In . SVG Version: 6.00 Build 0)  -->
<svg version="1.1" id="Layer_1" xmlns="http://www.w3.org/2000/svg" xmlns:xlink="http://www.w3.org/1999/xlink" x="0px" y="0px"
	 width="360px" height="180px" viewBox="0 0 360 180" style="enable-background:new 0 0 360 180;" xml:space="preserve">
<style type="text/css">
	.st0{fill:none;stroke:#11ACCD;stroke-width:3;stroke-miterlimit:10;}
	.st1{opacity:0.5;fill:#CCFAFF;}
	.st2{fill:none;stroke:#000000;stroke-linecap:round;stroke-linejoin:round;stroke-miterlimit:10;}
	.st3{fill:none;stroke:#000000;stroke-width:1.5;stroke-linecap:round;stroke-linejoin:round;stroke-miterlimit:10;}
	.st4{fill:none;stroke:#000000;stroke-linecap:round;stroke-miterlimit:10;}
	.st5{fill:none;stroke:#000000;stroke-width:1.5;stroke-linecap:round;stroke-miterlimit:10;}
	.st6{fill:none;stroke:#000000;stroke-width:2;stroke-linecap:round;stroke-linejoin:round;stroke-miterlimit:10;}
	.st7{fill:none;stroke:#000000;stroke-width:1.5;stroke-miterlimit:10;}
	.st8{fill:none;stroke:#000000;stroke-miterlimit:10;}
	.st9{fill:none;stroke:#000000;stroke-width:2;stroke-miterlimit:10;}
	.st10{fill:none;stroke:#000000;stroke-width:2;stroke-linecap:round;stroke-miterlimit:10;}
	.st11{fill:none;stroke:#000000;stroke-linecap:round;stroke-linejoin:round;}
	.st12{fill:none;}
	.st13{stroke:#000000;stroke-linecap:round;stroke-linejoin:round;stroke-miterlimit:10;}
	.st14{fill:none;stroke:#000000;stroke-width:1.5;stroke-linejoin:round;stroke-miterlimit:10;}
	.st15{fill:none;stroke:#000000;stroke-linejoin:round;stroke-miterlimit:10;}
	.st16{clip-path:url(#SVGID_2_);fill:none;stroke:#000000;stroke-linejoin:round;stroke-miterlimit:10;}
	.st17{clip-path:url(#SVGID_2_);fill:none;stroke:#ADADEB;stroke-linejoin:round;stroke-miterlimit:10;}
	.st18{clip-path:url(#SVGID_2_);}
	.st19{stroke:#000000;stroke-linejoin:round;stroke-miterlimit:10;}
	.st20{stroke:#000000;stroke-width:3;stroke-linejoin:round;stroke-miterlimit:10;}
	.st21{fill:none;stroke:#000000;stroke-linejoin:round;}
	.st22{fill:#FFFFFF;stroke:#000000;stroke-miterlimit:10;}
	.st23{fill:none;stroke:#11ACCD;stroke-width:3;stroke-linecap:round;stroke-miterlimit:10;}
	.st24{fill:#11ACCD;}
	.st25{fill:#0C7F99;}
	.st26{fill:#FF9C39;}
	.st27{fill:none;stroke:#000000;stroke-width:2;stroke-linecap:round;stroke-miterlimit:10;stroke-dasharray:6.1241,6.1241;}
	.st28{fill:none;stroke:#11ACCD;stroke-width:4;stroke-linecap:round;stroke-miterlimit:10;}
	.st29{font-family:'KaTeX_Main-Regular';}
	.st30{font-size:18px;}
	.st31{letter-spacing:1;}
	.st32{fill:none;stroke:#11ACCD;stroke-width:3;stroke-linecap:round;stroke-linejoin:round;}
	.st33{fill:none;stroke:#11ACCD;stroke-width:2;stroke-linecap:round;stroke-linejoin:round;}
	.st34{fill:none;stroke:#11ACCD;stroke-width:2;stroke-linecap:round;stroke-linejoin:round;stroke-dasharray:5.9723,5.9723;}
	.st35{font-family:'KaTeX_Main-Italic';}
	.st36{font-size:21px;}
	.st37{fill:#E07D10;}
	.st38{stroke:#000000;stroke-miterlimit:10;}
</style>
<text transform="matrix(1 0 0 1 6.0005 107.9998)"><tspan x="0" y="0" class="st29 st30 st31">5</tspan><tspan x="10.8" y="0" class="st29 st30">V</tspan></text>
<text transform="matrix(1 0 0 1 108.5999 23.9995)"><tspan x="0" y="0" class="st29 st30 st31">2</tspan><tspan x="10.8" y="0" class="st29 st30">kΩ</tspan></text>
<text transform="matrix(1 0 0 1 137.3133 155)"><tspan x="0" y="0" class="st29 st30 st31">1</tspan><tspan x="10.8" y="0" class="st29 st30">kΩ</tspan></text>
<text transform="matrix(1 0 0 1 221.9998 23.9993)"><tspan x="0" y="0" class="st29 st30 st31">2</tspan><tspan x="10.8" y="0" class="st29 st30">kΩ</tspan></text>
<text transform="matrix(1 0 0 1 329.9996 107.9998)"><tspan x="0" y="0" class="st29 st30 st31">2</tspan><tspan x="10.8" y="0" class="st29 st30">V</tspan></text>
<g>
	<circle class="st6" cx="306" cy="102" r="18"/>
	<polyline class="st2" points="288,42 306,42 306,60 306,84 	"/>
	<polyline class="st2" points="306,120 306,144 306,162 	"/>
	<line class="st3" x1="306" y1="88.5" x2="306" y2="100.5"/>
	<line class="st3" x1="300" y1="94.5" x2="312" y2="94.5"/>
	<line class="st3" x1="300" y1="112.5" x2="312" y2="112.5"/>
</g>
<circle class="st1" cx="120" cy="102" r="24"/>
<text transform="matrix(1 0 0 1 116.751 107.9991)" class="st25 st29 st30">I</text>
<circle class="st1" cx="239.3" cy="102" r="24"/>
<text transform="matrix(1 0 0 1 232.8155 107.9991)" class="st25 st29 st30">II</text>
<g>
	<circle class="st6" cx="54" cy="102" r="18"/>
	<polyline class="st2" points="54,84 54,60 54,42 72,42 	"/>
	<polyline class="st2" points="54,120 53.8,162 306,162 	"/>
	<line class="st3" x1="54" y1="88.5" x2="54" y2="100.5"/>
	<line class="st3" x1="48" y1="94.5" x2="60" y2="94.5"/>
	<line class="st3" x1="48" y1="112.5" x2="60" y2="112.5"/>
</g>
<g>
	<line class="st2" x1="149.2" y1="42" x2="179" y2="42"/>
	<polyline class="st6" points="102.4,42 106.3,33 114.1,51 121.9,33 129.7,51 137.5,33 145.3,51 149.2,42 	"/>
	<line class="st2" x1="72" y1="42" x2="102.4" y2="42"/>
	<polygon class="st12" points="179,54 179.2,30 72,30 72,54 	"/>
</g>
<g>
	<line class="st2" x1="258" y1="42" x2="287.8" y2="42"/>
	<polyline class="st6" points="211.2,42 215.1,33 222.9,51 230.7,33 238.5,51 246.3,33 254.1,51 258,42 	"/>
	<line class="st2" x1="180.8" y1="42" x2="211.2" y2="42"/>
	<polygon class="st12" points="287.8,54 288,30 180.8,30 180.8,54 	"/>
</g>
<g>
	<line class="st2" x1="179.8" y1="78.6" x2="179.8" y2="60"/>
	<polyline class="st6" points="179.8,125.4 170.8,121.5 188.8,113.7 170.8,105.9 188.8,98.1 170.8,90.3 188.8,82.5 179.8,78.6 	"/>
	<line class="st2" x1="179.8" y1="162" x2="179.8" y2="125.4"/>
	<rect x="167.8" y="60" class="st12" width="24" height="102"/>
</g>
<g>
	<circle class="st13" cx="179.8" cy="42" r="1.5"/>
	<rect x="173.8" y="36" class="st12" width="12" height="12"/>
</g>
<g>
	<circle class="st13" cx="179.8" cy="162" r="1.5"/>
	<rect x="173.8" y="156" class="st12" width="12" height="12"/>
</g>
<line class="st2" x1="179.6" y1="60" x2="179.6" y2="42"/>
<g>
	<g>
		<path class="st32" d="M96.2,135.6c6.8,4.7,15,7.4,23.8,7.4c23.2,0,42-18.8,42-42s-18.8-42-42-42s-42,18.8-42,42
			c0,11.8,4.8,22.4,12.6,30"/>
		<g>
			<path class="st24" d="M90.6,131c1.9,3.1,3.8,7.5,4.4,10.9l2-5.7l5.2-3.1C98.7,133.2,94,132.2,90.6,131z"/>
		</g>
	</g>
</g>
<g>
	<g>
		<path class="st32" d="M215.5,135.6c6.8,4.7,15,7.4,23.8,7.4c23.2,0,42-18.8,42-42s-18.8-42-42-42c-23.2,0-42,18.8-42,42
			c0,11.8,4.8,22.4,12.6,30"/>
		<g>
			<path class="st24" d="M209.9,131c1.9,3.1,3.8,7.5,4.4,10.9l2-5.7l5.2-3.1C218,133.2,213.4,132.2,209.9,131z"/>
		</g>
	</g>
</g>
<text transform="matrix(1 0 0 1 78 144.0004)" class="st25 st35 st36">i</text>
<text transform="matrix(0.583 0 0 0.583 84.4473 150.9936)" class="st25 st29 st36">I</text>
<text transform="matrix(1 0 0 1 198 144.0004)" class="st25 st35 st36">i</text>
<text transform="matrix(0.583 0 0 0.583 204.4473 150.9936)" class="st25 st29 st36">II</text>
</svg>
