<?xml version="1.0" encoding="utf-8"?>
<!-- Generator: Adobe Illustrator 19.1.0, SVG Export Plug-In . SVG Version: 6.00 Build 0)  -->
<svg version="1.1" id="Layer_1" xmlns="http://www.w3.org/2000/svg" xmlns:xlink="http://www.w3.org/1999/xlink" x="0px" y="0px"
	 width="468px" height="282px" viewBox="0 0 468 282" style="enable-background:new 0 0 468 282;" xml:space="preserve">
<style type="text/css">
	.st0{fill:none;stroke:#FF9C39;stroke-width:5;stroke-linecap:round;stroke-miterlimit:10;}
	.st1{fill:#FF9C39;}
	.st2{fill:none;stroke:#1FAB54;stroke-width:6;stroke-linecap:round;stroke-miterlimit:10;}
	.st3{fill:none;stroke:#FF9C39;stroke-width:6;stroke-linecap:round;stroke-miterlimit:10;}
	.st4{fill:none;stroke:#FF9C39;stroke-width:6;stroke-linecap:round;stroke-linejoin:round;stroke-miterlimit:10;}
	.st5{fill:none;stroke:#11ACCD;stroke-width:5;stroke-linecap:round;stroke-linejoin:round;stroke-miterlimit:10;}
	.st6{fill:none;stroke:#1FAB54;stroke-width:6;stroke-linecap:round;stroke-linejoin:round;stroke-miterlimit:10;}
	.st7{fill:none;stroke:#BABEC2;stroke-width:2;stroke-linecap:round;stroke-miterlimit:10;}
	.st8{fill:none;stroke:#ED5FA6;stroke-width:4;stroke-linecap:round;stroke-miterlimit:10;}
	.st9{fill:#ED5FA6;}
	.st10{fill:none;stroke:#1FAB54;stroke-width:4;stroke-linecap:round;stroke-miterlimit:10;}
	.st11{fill:#1FAB54;}
	.st12{fill:none;stroke:#11ACCD;stroke-width:4;stroke-linecap:round;stroke-miterlimit:10;}
	.st13{fill:#11ACCD;}
	.st14{fill:none;stroke:#FF9C39;stroke-width:4;stroke-linecap:round;stroke-miterlimit:10;}
	.st15{fill:none;stroke:#000000;stroke-linecap:round;stroke-linejoin:round;stroke-miterlimit:10;}
	.st16{fill:none;stroke:#000000;stroke-width:1.5;stroke-linecap:round;stroke-linejoin:round;stroke-miterlimit:10;}
	.st17{fill:none;stroke:#000000;stroke-linecap:round;stroke-miterlimit:10;}
	.st18{fill:none;stroke:#000000;stroke-width:1.5;stroke-linecap:round;stroke-miterlimit:10;}
	.st19{fill:none;stroke:#000000;stroke-width:2;stroke-linecap:round;stroke-linejoin:round;stroke-miterlimit:10;}
	.st20{fill:none;stroke:#000000;stroke-width:1.5;stroke-miterlimit:10;}
	.st21{fill:none;stroke:#000000;stroke-miterlimit:10;}
	.st22{fill:none;stroke:#000000;stroke-width:2;stroke-miterlimit:10;}
	.st23{fill:none;stroke:#000000;stroke-width:2;stroke-linecap:round;stroke-miterlimit:10;}
	.st24{fill:none;stroke:#000000;stroke-linecap:round;stroke-linejoin:round;}
	.st25{fill:none;}
	.st26{stroke:#000000;stroke-linecap:round;stroke-linejoin:round;stroke-miterlimit:10;}
	.st27{fill:none;stroke:#000000;stroke-width:1.5;stroke-linejoin:round;stroke-miterlimit:10;}
	.st28{fill:none;stroke:#000000;stroke-linejoin:round;stroke-miterlimit:10;}
	.st29{clip-path:url(#SVGID_2_);fill:none;stroke:#000000;stroke-linejoin:round;stroke-miterlimit:10;}
	.st30{clip-path:url(#SVGID_2_);fill:none;stroke:#ADADEB;stroke-linejoin:round;stroke-miterlimit:10;}
	.st31{clip-path:url(#SVGID_2_);}
	.st32{stroke:#000000;stroke-linejoin:round;stroke-miterlimit:10;}
	.st33{stroke:#000000;stroke-width:3;stroke-linejoin:round;stroke-miterlimit:10;}
	.st34{fill:none;stroke:#000000;stroke-linejoin:round;}
	.st35{fill:#FFFFFF;stroke:#000000;stroke-miterlimit:10;}
	.st36{fill:#E07D10;}
	.st37{fill:none;stroke:#11ACCD;stroke-width:3;stroke-linecap:round;stroke-miterlimit:10;}
	.st38{fill:none;stroke:#E07D10;stroke-width:2;stroke-linecap:round;stroke-miterlimit:10;}
	.st39{fill:none;stroke:#FF9C39;stroke-width:3;stroke-linecap:round;stroke-miterlimit:10;}
	.st40{fill:none;stroke:#FFBB71;stroke-width:2;stroke-linecap:round;stroke-miterlimit:10;}
	.st41{fill:#FFBB71;}
	.st42{fill:none;stroke:#000000;stroke-width:2;stroke-linecap:round;stroke-miterlimit:10;stroke-dasharray:6.1241,6.1241;}
	.st43{font-family:'KaTeX_Main-Italic';}
	.st44{font-size:21px;}
	.st45{font-family:'KaTeX_Main-Regular';}
	.st46{letter-spacing:1;}
	.st47{font-size:18px;}
	.st48{font-size:24px;}
	.st49{fill:#66AFE9;}
	.st50{font-family:'ProximaNova-Regular';}
	.st51{font-size:14px;}
	.st52{fill:none;stroke:#66AFE9;stroke-miterlimit:10;}
	.st53{fill:none;stroke:#11ACCD;stroke-width:1.5;stroke-miterlimit:10;}
	.st54{fill:none;stroke:#11ACCD;stroke-width:4;stroke-linecap:round;stroke-linejoin:round;stroke-miterlimit:10;}
	.st55{fill:#CA337C;}
</style>
<text transform="matrix(1 0 0 1 54.0004 192.0001)" class="st13 st43 st44">i</text>
<text transform="matrix(0.583 0 0 0.583 60.4471 198.9933)" class="st13 st45 st44">R</text>
<text transform="matrix(1 0 0 1 162.0005 192.0002)" class="st11 st45 st44 st46">b</text>
<text transform="matrix(1 0 0 1 30.0005 192.0002)" class="st11 st45 st44 st46">a</text>
<g>
	<line class="st19" x1="125.2" y1="168" x2="156" y2="168"/>
	<polyline class="st19" points="78.4,168 82.3,159 90.1,177 97.9,159 105.7,177 113.5,159 121.3,177 125.2,168 	"/>
	<line class="st19" x1="42" y1="168" x2="78.4" y2="168"/>
	<polygon class="st25" points="149.6,180 149.8,156 42,156 42,180 	"/>
</g>
<text transform="matrix(1 0 0 1 83.814 204.0001)"><tspan x="0" y="0" class="st45 st47">2</tspan><tspan x="9" y="0" class="st45 st47 st46">0</tspan><tspan x="19.8" y="0" class="st45 st47">Ω</tspan></text>
<g>
	<g>
		<path class="st40" d="M131.8,150c-6.4-3.7-18.8-6.2-33-6.2c-10.2,0-19.5,1.3-26.3,3.4"/>
		<g>
			<path class="st41" d="M65.8,150c2.7-2.4,5.8-6,7.4-9.1l0.2,6.1l4,4.5C74.2,150.3,69.4,149.9,65.8,150z"/>
		</g>
	</g>
</g>
<text transform="matrix(-1 0 0 1 145.2749 138.0001)" class="st1 st45 st44">−        </text>
<text transform="matrix(-0.583 0 0 0.583 86.937 144.9932)" class="st1 st45 st44">    </text>
<text transform="matrix(-1 0 0 1 74.6938 138.0001)" class="st1 st45 st44">+</text>
<text transform="matrix(1 0 0 1 90.0002 126.0001)" class="st1 st43 st44">v</text>
<text transform="matrix(0.583 0 0 0.583 99.6599 132.9933)" class="st1 st45 st44">R</text>
<text transform="matrix(1 0 0 1 48.0002 84.0001)" class="st36 st43 st48">v</text>
<text transform="matrix(0.583 0 0 0.583 59.0402 91.9922)" class="st36 st45 st48">R </text>
<text transform="matrix(1 0 0 1 72.8361 84.0001)" class="st36 st45 st48">= </text>
<text transform="matrix(1 0 0 1 97.508 84.0001)" class="st36 st43 st48">v</text>
<text transform="matrix(0.583 0 0 0.583 108.5475 91.9922)" class="st36 st45 st48">a</text>
<text transform="matrix(1 0 0 1 115.5436 84.0001)" class="st36 st45 st48"> − </text>
<text transform="matrix(1 0 0 1 146.216 84.0001)" class="st36 st43 st48">v</text>
<text transform="matrix(0.583 0 0 0.583 157.2556 91.9922)" class="st36 st45 st48">b</text>
<text transform="matrix(1 0 0 1 24.0002 150.0001)" class="st36 st43 st44">v</text>
<text transform="matrix(0.583 0 0 0.583 33.6599 156.9933)" class="st36 st45 st44">a</text>
<text transform="matrix(1 0 0 1 156.0002 150.0001)" class="st36 st43 st44">v</text>
<text transform="matrix(0.583 0 0 0.583 165.6599 156.9933)" class="st36 st45 st44">b</text>
<g>
	<line class="st1" x1="161.6" y1="168" x2="192" y2="168"/>
	<g>
		<line class="st23" x1="161.6" y1="168" x2="167.6" y2="168"/>
		<line class="st42" x1="173.8" y1="168" x2="182.9" y2="168"/>
		<line class="st23" x1="186" y1="168" x2="192" y2="168"/>
	</g>
</g>
<g>
	<line class="st1" x1="6" y1="168" x2="36.4" y2="168"/>
	<g>
		<line class="st23" x1="6" y1="168" x2="12" y2="168"/>
		<line class="st42" x1="18.1" y1="168" x2="27.3" y2="168"/>
		<line class="st23" x1="30.4" y1="168" x2="36.4" y2="168"/>
	</g>
</g>
<text transform="matrix(1 0 0 1 402.0004 192.0001)" class="st13 st43 st44">i</text>
<text transform="matrix(0.583 0 0 0.583 408.4471 198.9933)" class="st13 st45 st44">R</text>
<text transform="matrix(1 0 0 1 426.3728 192.0002)" class="st11 st45 st44 st46">b</text>
<text transform="matrix(1 0 0 1 294.3728 192.0002)" class="st11 st45 st44 st46">a</text>
<g>
	<line class="st19" x1="389.6" y1="168" x2="426" y2="168"/>
	<polyline class="st19" points="342.8,168 346.7,159 354.5,177 362.3,159 370.1,177 377.9,159 385.7,177 389.6,168 	"/>
	<line class="st19" x1="306" y1="168" x2="342.8" y2="168"/>
	<polygon class="st25" points="414,180 414.2,156 312.4,156 312.4,180 	"/>
</g>
<text transform="matrix(1 0 0 1 348.186 204.0001)"><tspan x="0" y="0" class="st45 st47">2</tspan><tspan x="9" y="0" class="st45 st47 st46">0</tspan><tspan x="19.8" y="0" class="st45 st47">Ω</tspan></text>
<g>
	<g>
		<path class="st40" d="M330.2,150c6.4-3.7,18.8-6.2,33-6.2c10.2,0,19.5,1.3,26.3,3.4"/>
		<g>
			<path class="st41" d="M396.2,150c-3.6-0.1-8.4,0.3-11.6,1.5l4-4.5l0.2-6.1C390.4,144,393.5,147.6,396.2,150z"/>
		</g>
	</g>
</g>
<text transform="matrix(-1 0 0 1 409.647 138.0001)" class="st1 st45 st44">+        </text>
<text transform="matrix(-0.583 0 0 0.583 351.3091 144.9932)" class="st1 st45 st44">    </text>
<text transform="matrix(-1 0 0 1 339.0659 138.0001)" class="st1 st45 st44">−</text>
<text transform="matrix(1 0 0 1 354.0001 126.0001)" class="st1 st43 st44">v</text>
<text transform="matrix(0.583 0 0 0.583 363.6598 132.9933)" class="st1 st45 st44">R</text>
<text transform="matrix(1 0 0 1 300.0001 84.0001)" class="st36 st43 st48">v</text>
<text transform="matrix(0.583 0 0 0.583 311.0402 91.9922)" class="st36 st45 st48">R </text>
<text transform="matrix(1 0 0 1 324.8361 84.0001)" class="st36 st45 st48">= </text>
<text transform="matrix(1 0 0 1 349.5079 84.0001)" class="st36 st43 st48">v</text>
<text transform="matrix(0.583 0 0 0.583 360.5475 91.9922)" class="st36 st45 st48">b</text>
<text transform="matrix(1 0 0 1 368.3273 84.0001)" class="st36 st45 st48"> − </text>
<text transform="matrix(1 0 0 1 398.9991 84.0001)" class="st36 st43 st48">v</text>
<text transform="matrix(0.583 0 0 0.583 410.0392 91.9922)" class="st36 st45 st48">a</text>
<text transform="matrix(1 0 0 1 288.0001 150.0001)" class="st36 st43 st44">v</text>
<text transform="matrix(0.583 0 0 0.583 297.6598 156.9933)" class="st36 st45 st44">a</text>
<text transform="matrix(1 0 0 1 420.3722 150.0001)" class="st36 st43 st44">v</text>
<text transform="matrix(0.583 0 0 0.583 430.0319 156.9933)" class="st36 st45 st44">b</text>
<g>
	<line class="st1" x1="431.6" y1="168" x2="462" y2="168"/>
	<g>
		<line class="st23" x1="431.6" y1="168" x2="437.6" y2="168"/>
		<line class="st42" x1="443.8" y1="168" x2="452.9" y2="168"/>
		<line class="st23" x1="456" y1="168" x2="462" y2="168"/>
	</g>
</g>
<g>
	<line class="st1" x1="270" y1="168" x2="300.4" y2="168"/>
	<g>
		<line class="st23" x1="270" y1="168" x2="276" y2="168"/>
		<line class="st42" x1="282.1" y1="168" x2="291.3" y2="168"/>
		<line class="st23" x1="294.4" y1="168" x2="300.4" y2="168"/>
	</g>
</g>
<g>
	<g>
		<line class="st12" x1="48" y1="168" x2="59.9" y2="168"/>
		<g>
			<path class="st13" d="M72,168c-5.7,2.1-12.7,5.7-17.1,9.5l3.4-9.5l-3.4-9.5C59.3,162.3,66.3,165.9,72,168z"/>
		</g>
	</g>
</g>
<g>
	<g>
		<line class="st12" x1="408.1" y1="168" x2="420" y2="168"/>
		<g>
			<path class="st13" d="M396,168c5.7,2.1,12.7,5.7,17.1,9.5l-3.4-9.5l3.4-9.5C408.7,162.3,401.7,165.9,396,168z"/>
		</g>
	</g>
</g>
<text transform="matrix(1 0 0 1 18 18)" class="st36 st43 st44">v</text>
<text transform="matrix(0.583 0 0 0.583 27.6602 24.9932)" class="st36 st45 st44">a</text>
<text transform="matrix(1 0 0 1 33.7812 18)" class="st49 st43 st44"> </text>
<text transform="matrix(1 0 0 1 39.0312 18)" class="st49 st50 st51">is the more positive voltage</text>
<text transform="matrix(1 0 0 1 18 264)"><tspan x="0" y="0" class="st49 st50 st51">current arrow points from </tspan><tspan x="158.4" y="0" class="st11 st45 st47">a</tspan><tspan x="167.4" y="0" class="st49 st50 st51"> to </tspan><tspan x="186.7" y="0" class="st11 st45 st47">b</tspan></text>
<text transform="matrix(1 0 0 1 252 264)"><tspan x="0" y="0" class="st49 st50 st51">current arrow points from </tspan><tspan x="158.4" y="0" class="st11 st45 st47">b</tspan><tspan x="168.4" y="0" class="st49 st50 st51"> to </tspan><tspan x="187.7" y="0" class="st11 st45 st47">a</tspan></text>
<text transform="matrix(1 0 0 1 246 18)" class="st36 st43 st44">v</text>
<text transform="matrix(0.583 0 0 0.583 255.6602 24.9932)" class="st36 st45 st44">b</text>
<text transform="matrix(1 0 0 1 262.4668 18)" class="st36 st43 st47"> </text>
<text transform="matrix(1 0 0 1 266.9668 18)" class="st49 st50 st51">is the more positive voltage</text>
<g>
	<g>
		<path class="st52" d="M60,246c-2.4-3.2-7-10.2-9-20.8c-1.2-6.2-1.1-11.8-0.6-16.2"/>
		<g>
			<path class="st49" d="M50.2,210.8l-3.9,1.5l-0.1-0.1l3.3-5.4c0.8-1.9,1.6-3.9,2.4-5.8c0.1,2.1,0.2,4.2,0.2,6.3l1.3,6.2l-0.1,0.1
				L50.2,210.8z"/>
		</g>
	</g>
</g>
<g>
	<g>
		<path class="st52" d="M79.7,27c3.1,0.9,12.7,4.2,20.2,14.7c4,5.7,6,11.5,7.1,16.2"/>
		<g>
			<path class="st49" d="M106.5,56.2l3.2-2.7l0.1,0.1l-1.4,6.2c-0.1,2.1-0.3,4.2-0.4,6.3c-0.7-2-1.5-3.9-2.2-5.9l-3.2-5.5l0-0.1
				L106.5,56.2z"/>
		</g>
	</g>
</g>
<g>
	<g>
		<path class="st52" d="M344.7,24c2.1,3,5.7,9,8.7,19.1c1.8,6.1,2.9,11.9,3.5,16.8"/>
		<g>
			<path class="st49" d="M356.6,58.1l3.3-2.6l0.1,0.1l-1.7,6.1c-0.2,2.1-0.4,4.2-0.7,6.3c-0.7-2-1.3-4-2-6l-3-5.6l0-0.1L356.6,58.1z
				"/>
		</g>
	</g>
</g>
<g>
	<g>
		<path class="st52" d="M389.7,245.3c3.7-4.1,8.6-10.5,12.5-19.4c2.2-5,3.6-9.8,4.6-13.9"/>
		<g>
			<path class="st49" d="M406.3,213.8l-3.9,1.5l-0.1-0.1l3.3-5.4c0.8-1.9,1.6-3.9,2.4-5.8c0.1,2.1,0.2,4.2,0.3,6.3l1.3,6.2l-0.1,0.1
				L406.3,213.8z"/>
		</g>
	</g>
</g>
</svg>
